<svg id="Layer_1" data-name="Layer 1" xmlns="http://www.w3.org/2000/svg" viewBox="0 0 38.25 57.75"><defs><style>.cls-1{fill:none;}.cls-2{fill:#202020;}</style></defs><title>lambda</title><path d="M855.51,476.21h-7.17l-9.88-29.14-4.57,13.22-5.31,15.93h-7.17L828.09,458l7.42-19.05q-3.13-9-8.05-9a10.37,10.37,0,0,0-3.16.49v-6.12a16.35,16.35,0,0,1,4.29-.49,8.34,8.34,0,0,1,5.64,2A15.34,15.34,0,0,1,838,430.7q1.44,2.94,3.45,8.21Z" transform="translate(-817.29 -421.35)"/><path class="cls-1" d="M855.51,476.21h-7.17l-9.88-29.14-4.57,13.22-5.31,15.93h-7.17L828.09,458l7.42-19.05q-3.13-9-8.05-9a10.37,10.37,0,0,0-3.16.49v-6.12a16.35,16.35,0,0,1,4.29-.49,8.34,8.34,0,0,1,5.64,2A15.34,15.34,0,0,1,838,430.7q1.44,2.94,3.45,8.21Z" transform="translate(-817.29 -421.35)"/><path class="cls-2" d="M854.27,476.68c.2,0,.54-.16.37-.4l-.69,0Z" transform="translate(-817.29 -421.35)"/><path class="cls-2" d="M854.71,474.39a1.43,1.43,0,0,0-1.58,0c.72.1.5.27,1.34.35a.39.39,0,0,1-.26.6c.2,0,0,.48.47.48a.85.85,0,0,0-.38-1.33C854.39,474.37,854.59,474.41,854.71,474.39Z" transform="translate(-817.29 -421.35)"/><path class="cls-2" d="M845.48,447v.2A.37.37,0,0,0,845.48,447Z" transform="translate(-817.29 -421.35)"/><path class="cls-2" d="M839.16,430.2c.08.12.16.14.22.12C839.28,430.23,839.2,430.15,839.16,430.2Z" transform="translate(-817.29 -421.35)"/><path class="cls-2" d="M838.05,427l.08.19C838.14,427.05,838.12,427,838.05,427Z" transform="translate(-817.29 -421.35)"/><path class="cls-2" d="M845.48,447l0-.52C845.29,446.57,845.44,446.81,845.48,447Z" transform="translate(-817.29 -421.35)"/><path class="cls-2" d="M851.81,471.23a.61.61,0,0,0,.25.18l-.15-.2Z" transform="translate(-817.29 -421.35)"/><path class="cls-2" d="M848.77,454.22l.05.14.29,0Z" transform="translate(-817.29 -421.35)"/><path class="cls-2" d="M851,459.84c0-.14-.57,0-.82.06a.54.54,0,0,1,.47.14A1.38,1.38,0,0,0,851,459.84Z" transform="translate(-817.29 -421.35)"/><path class="cls-2" d="M853.46,469.16l.13.13Z" transform="translate(-817.29 -421.35)"/><path class="cls-2" d="M847.35,450.13a.62.62,0,0,0,.17-.12A.43.43,0,0,0,847.35,450.13Z" transform="translate(-817.29 -421.35)"/><path class="cls-2" d="M850.26,473.57l-.07.1C850.24,473.61,850.27,473.57,850.26,473.57Z" transform="translate(-817.29 -421.35)"/><path class="cls-2" d="M855.51,476.35l-.1,0c0,.11,0,.21,0,.32Z" transform="translate(-817.29 -421.35)"/><path class="cls-2" d="M833.38,422l0,0C833.62,422.07,833.51,422,833.38,422Z" transform="translate(-817.29 -421.35)"/><path class="cls-2" d="M825.73,457.63c.67-.37.28,1.12,1.1.49C826.6,458.12,826.29,457.07,825.73,457.63Z" transform="translate(-817.29 -421.35)"/><path class="cls-2" d="M851.83,471.06a1.68,1.68,0,0,1-.09-.23A.48.48,0,0,0,851.83,471.06Z" transform="translate(-817.29 -421.35)"/><path class="cls-2" d="M826.84,458.12h0l.08-.07Z" transform="translate(-817.29 -421.35)"/><path class="cls-2" d="M821.89,430.79a2.16,2.16,0,0,0,.25-.4A1.14,1.14,0,0,0,821.89,430.79Z" transform="translate(-817.29 -421.35)"/><path class="cls-2" d="M829.16,422.2l-.27-.08A.88.88,0,0,0,829.16,422.2Z" transform="translate(-817.29 -421.35)"/><path class="cls-2" d="M827.72,431.53c.09.05.12.12.24.07a.3.3,0,0,0,0-.07C827.89,431.59,827.82,431.63,827.72,431.53Z" transform="translate(-817.29 -421.35)"/><path class="cls-2" d="M831,433.5a1,1,0,0,0,0-.14l-.11-.09Z" transform="translate(-817.29 -421.35)"/><path class="cls-2" d="M845.58,460.69a1.78,1.78,0,0,1-.4.39C845.53,460.88,845.91,461.55,845.58,460.69Z" transform="translate(-817.29 -421.35)"/><path class="cls-2" d="M852.11,471.12c-.14,0-.22,0-.28-.06l.09.15A.28.28,0,0,0,852.11,471.12Z" transform="translate(-817.29 -421.35)"/><path class="cls-2" d="M828.39,427.14l.62.15a4.06,4.06,0,0,1,.61.19A4.35,4.35,0,0,0,828.39,427.14Z" transform="translate(-817.29 -421.35)"/><path class="cls-2" d="M829.2,467.13v-.2A.18.18,0,0,0,829.2,467.13Z" transform="translate(-817.29 -421.35)"/><path class="cls-2" d="M832.8,429.08a1.74,1.74,0,0,0,.21.7.54.54,0,0,0,.19,0Z" transform="translate(-817.29 -421.35)"/><path class="cls-2" d="M845.17,461.08h0Z" transform="translate(-817.29 -421.35)"/><path class="cls-2" d="M848.18,465.79c-.24-.75-.8-.12-1.26-.14-.5-.82.38-.58.63-1-.37-.49-1.16-.7-1.27-1.12.1-.07.12-.16.3-.12-.75-.4-.62-1.73-1.55-2.17a.45.45,0,0,1,.14-.15,2.7,2.7,0,0,1-.93.43c-.12-.33-.65-.47-.24-.75.06.21.25.16.42.21l-.32-.28c.55-.54.39.4.87.23-.44-.61-1.26-1.22-1.25-1.8.61-.33.63,1.15,1,.26l0,.89c.81-1,.1.51,1-.42-.17-1.12-.73-1.08-.9-2.2-.44-.12-.5.26-.94.14-1.15-1.29,1.22-1.73,0-2.55-.28-.13-.66-.21-.93-.36s-.47-.4-.48-1.14a5.7,5.7,0,0,1,.79-.05c-.56-1.89-1.2-.09-1.38-2.25.31,0,.62,1.05.6.71,0-1.79-.59-.4-.86-1.18l.37-1a18.92,18.92,0,0,0-1.17-2.35,19.14,19.14,0,0,1-1.09-2.08,2.72,2.72,0,0,0,.16-1.48,20.2,20.2,0,0,1-1.39-4c-.47,1-1,1.85-1.5,2.75l-.19,2.33c-.08.2-.23-.15-.18-.65-.43.56.1.85,0,1.8-.16.6-.37,0-.31-.66-.22,1.4-.51,3-.83,4.36a7.26,7.26,0,0,1-1.24,3l0-.49a2.38,2.38,0,0,0-.13,1.73c.1.5.2.9-.24,1.33a1.53,1.53,0,0,1,0-.24c-.9,1.83-1.07,3.92-2.37,5,.71.53-1,1.67.12,2.16-.9.85-1,.48-1.86,1.81-.18.37.5.81.46,1.33l-.59-.19.4.86-.81.11v.5a.49.49,0,0,1,.55-.21c0,.79-1,1.58-1.28,1.5L828.4,470c-.22-.12-.21-.42-.29-.69.3,1.09-.67,0-.39,1,.17-.06.33.18.44.23a2.81,2.81,0,0,0-.88,1.95l-.36-.27a7.55,7.55,0,0,0-.27.73c-.05.17,0,.15,0,.17v.06a1.71,1.71,0,0,1,0,.35.29.29,0,0,1-.15,0c.18.2.63.93.42,1l-.17-.33-.15-.33c0,.4.29.25.21.74-.32-.08-.31-.74-.33-1a1,1,0,0,1-.13.23c0-.19,0-.3,0-.55,0,.1,0,.11,0,.08l0-.07-.21-.1c0-.13,0-.22-.12.14l0-.19c-.09,0-.34.22-.6.25a4.12,4.12,0,0,1-.9.57l-.4.16a6.49,6.49,0,0,1,.67-.75c.21-.21.37-.34.39-.47-.22-.2-.48-.07-.78-.22.54,0,.61-.3.9,0v-.06l.05-.19.1-.36c.06-.23.11-.43.16-.66a16.8,16.8,0,0,0,.23-1.76c-.26.09-.41.24-.54.09,0-.3.43-.54.64-.42l0,.09c-.1-2,2.82-3.36,2.31-5.07l0,.09v-1.58c.32-.61.22.52.69.16-.25-1.8,1-2.32.9-3.76,1.76-.42,1.2-3.41,2.6-4.35l-.36-.05c-.2-.45.35-.33.52-.54-.27-.06-.44.25-.54,0,.69-3,2.74-5.6,4.16-8.35.5-1-1.49-1.26-.18-2.28l.47.61a9.73,9.73,0,0,1,.91-3.36l.57-1.44.14-.36c0-.12.14-.24,0-.36l-.28-.72c-.19-.46-.4-1-.59-1.35a6.83,6.83,0,0,0-.51-.77c.19.07.38,0,.47.22.27-.66-.75-1.77-1.12-1.59-.13-.36.28-.24.35-.54,0-.62-1.18-.89-.91-1.37,0-.08.22.05.3.12-.37-.19-.87-1.46-1.13-.86-.35-1-1.36-1.36-1.74-2.17-.43,0-.7-.32-1-.6s-.66-.5-1-.16c.27-.37-.08-.8-.68-1.06a2.64,2.64,0,0,0-1.79-.13c.29-.24-.62-.37-.28-.7a4.75,4.75,0,0,0-.62,0c-.13,0-.13,0-.14,0l0,.07a1.77,1.77,0,0,0-.14.5c-.05-.4-.08-.37-.25-.24s-.43.38-.49.36,0-.16.4-.59c-.24.12-.45,0-.62-.1s-.08,0-.12-.18l-.06-.31-.05-.07a1.14,1.14,0,0,1-.1-.17,2.66,2.66,0,0,1-.08-.31,1.21,1.21,0,0,1,.5.5s0,0,.1,0a.49.49,0,0,0,.43.19c0-.28-.1-.13-.16-.15a.41.41,0,0,1-.18,0c-.12-.05-.25-.28-.35-.44-.34-.46,0-.6.35-.56.23.09.13.38.22.53a.36.36,0,0,1,.26-.19,1.88,1.88,0,0,1,.43,0c.32,0,.64,0,1-.05a3.93,3.93,0,0,0,.85-.18c0,.08-.13.16-.25.23.22,0,.47.18.5-.23l-.22.09c-.14-.31.09-.61.42-.84s.72-.4.78-.54c-.63,1,1.06.6.06,1.85a.59.59,0,0,0,.43-.43c.17.15.16.32-.13.54.72.06.7-.44,1.3-.1-.1.17-.26.17-.43.34.46-.19,1-.31,1.38.22-.1.07-.15.23-.28.12.83.62,2.15.59,2.64,1.86-.91.21,0,.52-.56,1l.27.21.27.22.16-.42c.3.5,1,.7,1.06,1.29l-.48-.25.32.46.32.5,0-.72c.63.4.82-.48,1,.38-.14-.13.27.59,0,1.08h0c.35.19.71.39.73.91-.17.21-.8.24-.91.37.7,0,.75,1.32,1.51,1.44a.84.84,0,0,0-.62.15l.57.05c0,.34-.09.41-.4.48.25.87.77-.62.79.53-.07-.06-.13,0-.26-.13.2,1.08,1.06,1.82,1.18,2.84-.6.54-.48-.74-1-.2.63,1.28,1.89,2.46,2.22,3.82v-.27c1.06-.2-.12,1.15.59,1.63-.13-.13-.63,0-.5,0,.18,1,.93,1.73,1.75,3l-.32-.07a11.89,11.89,0,0,0,.49,2c.32.07.4.41.7.07-.79,2.3,2,3,1.42,5-.07-.18-.39-.36-.34-.21l.73,1.23c.39-.27.2-.27.43-.68a1.19,1.19,0,0,1,.78.7c-.51-.49-.69.27-.84.62.12-.09.3-.06.42-.13-.51,1,.91-.21.75.92l-.25,0c.25.31.67.52.75.93-.44.35-.38-.29-.8-.16.23.52,1.35.7,1,1.37-.23-.17-.35-.5-.57-.67a1.21,1.21,0,0,0-.16,1.18v0l.08,1L848,460c1.56.18.75,1.27,1.95,1.85-1.14-.57-.52,0-1.11.18-.07.29-.11.71-.31.67.62.25-.09.85.8,1.19-.17.1.15.46-.34.54.35.5.27-.25.51-.29.95.62,0,2.29,1.32,3.19.75.92,1.44.89,2.12,1.75-.17.44-.77,0-.77,0a1.64,1.64,0,0,0,.53,1.44c-.2,0-.29.11-.44.35.2.39.77,0,.7.65a2.76,2.76,0,0,1-.89-.13c.35.41.87.75,1.22,1.19-.27.25-.59-.12-.87-.21.35.5.83,1.33,1.4,1.31l0-.42c.1.19-.39.27-.54.15-.57-.33-.08-.75.09-.85l.25.31c.93-.77-.7-1.35-.91-2.08h.89l-.92-.48c.14-.23.54-.5.79-.2.19-.65-.45-.34-.18-.94,0-.07.09-.07.14,0l-.42-.41c.2,0,.52-.29.52.06.11-1.06-1.13-1.21-.66-1.77l.08.06c-.73-1.13-.62.1-1.64-.57l1.17-1.16-.62.09c0-.14-.08-.4.17-.44-.57-.33-.22.17-.69,0,.29-.81-.88-1.6,0-2.08-.52-.06-.11.71-.66.17.91-.56-.45-.69-.22-1.42.57,0,.5.61.74-.12-1,0-.22-1.16-.57-1.57-.69.24-.67-.92-1.2-1.62.25,0-.19-1.63-.22-2.46l.12,0c-.74.12-.9-.69-1.25-1.19a.83.83,0,0,1,.92.13l-.2-.52a.88.88,0,0,1-.65-.47l.56-.06c-.29-.68-1.13-1.17-1.13-2.19-.5.13-1.07,1.21-1.74.39.25-.13.68-.34.87-.13-.06-.07-.32-.21-.27-.41l.58.21c0-.48-.44-.07-.53-.41.37-.13.17-.34.48-.4.07.07,0,.34.15.41a1.54,1.54,0,0,1,.2-1.17c-.2.11-.5.19-.65-.06-.29-.68.35-.41.39-.88-.32-.07-.22-.61-.78-.42-.07-.2.17-.34.29-.47-.38-.27-.7-1.65-1.14-1v.11l0,0h0c-1-1-.61-2.56-1.29-3.63l.19-.07c-.47-.62-.71-1.5-1.29-1.85-.08-.21.15-.61.41-.61-.34-.48-.57-.46-.56-1.34.52.41.22-.29.44.46-.1-.75.14-1-.65-1.57.57.07.4-.75.13-1l-.15.62a3.52,3.52,0,0,1-.38-1l.69-.06c.2-1.73-2.29-2.05-1.48-3.64-.59-.2,0,.9-.62.77-.18-.68.4-1.73.32-1.94-.06-1-1.25-.44-1.45-1.47a.74.74,0,0,1-1.21,0c-.22-.66.49-1.24.88-.9.09.15.06.25,0,.28.18.17.4.4.51,0l-.25,0c.08-.41-.44-1.36,0-1.32-.48-.41-.46,0-.37.4-.17-1-.75-1.35-1.15-2.32,0,.21-.15.49-.24.36-.66-1.37-.75-.26-1.45-.94-.1-.66.79-.43-.13-1-.26-.62.35-.54.68-.48-1-.38-1.08-1.46-1.59-2l.3.1.29.11a3.9,3.9,0,0,1-.82-.49v.58c-.22-.27-.46-.42-.35-.59-.46.08-.22.79-1,.81-.24-.44-1.21-.34-1.1-1,1.14.75.12-.67,1.24-.23a1.9,1.9,0,0,1-.78-.38c0-.09.1-.1.2-.1-.54-.54-.77-.42-1-.24a1.07,1.07,0,0,1-1.12.26c.25-.3-.16-.73-.41-.69.55.11.13.62-.38.81-.78-.39-.91.1-1.31,0l.47.16c-.19.34-.57.26-1.1.37-.05-.28.49-.18.29-.31-.31.3-.6.15-1,0a2.38,2.38,0,0,0-.56-.22,1.32,1.32,0,0,0-.79.11c-.58-.18-.2-.65-.75-.75a2.39,2.39,0,0,1-1.48.24,2.39,2.39,0,0,0-1.53.3c.79.29.7.19.2.8l.91-.4c.47-.2,1-.4,1-.4s-.27.23-.49.46-.4.45-.4.45c.56-.13,1.06-.55,1.49-.54-.45.47-.4.34.05.67a1,1,0,0,0-1.19.12,2.3,2.3,0,0,1-.44.28,1.09,1.09,0,0,1-.3.08c-.08,0-.08,0-.1.08a.42.42,0,0,1-.07.1l-1.1-.9a2.52,2.52,0,0,0-.22,1.09,6.5,6.5,0,0,0,.14,1.33c.09.48.19,1,.24,1.43,0,.07,0,.14,0,.21v.31a6.26,6.26,0,0,1-.05.82l.21-.75c.23.13.25.44.23.81a3.56,3.56,0,0,0,0,1.11c-.39.16-.54.66-.78,1.14.29-.26,0,1.69.76,1.06l-.26.72a3.28,3.28,0,0,0-.13.44l0,.18a1.8,1.8,0,0,0,0,.19,7.18,7.18,0,0,0,2.22-1.19,3.62,3.62,0,0,1,1.79-.89,1.11,1.11,0,0,0-.33.61c-.07.18-.17.34-.86.67.61-.17,1.12-.18,1.18-.46.13.11.56-.08.93-.2.19-.1.43-.2.51,0,.12-.15.23-.56.53-.46a.34.34,0,0,1,0,.19c0-.19.55-.11.4-.61.27.72.76.93,1.29,1.29s1,.77.88,1.43a6.75,6.75,0,0,1,1.45,1.59c-.12,0-.17.1-.19,0,.11.94,1.27-.08,1.38,1.06-.34.75-.56-.34-.63.06-1.1.68.7,1,.25,2l-.13-.13a.51.51,0,0,0,.06.44c.08.13.15.13.27.2s.61.34.39.57a.6.6,0,0,0-.2,0c.62.24.3,1.67.17,2.5-.37-.44-.11-.47-.65-.5-.07.39.82.19.67,1-.35.14-.78.58-1.33.45l.24-.7c-.8.1-.32.9-.58,1.22l-.27-.16c-.32,1.09.41,1.39-.08,2.51l.27,0c.48.9-.61.36-.31,1.19l-.81-.1a12.4,12.4,0,0,1,0,2.5,6.58,6.58,0,0,1-.45-2.25c-.16.4-.48,1.4-.2,1.75,0-.19-.11-.47.07-.58a2.58,2.58,0,0,1,.09,2.29c-1.37-.69-1.18,2-2.52,2.13,0,1.63-1.33,2.75-1.9,4.45,1.34-.17-.16.5,1,.83-.07.42-.14.56-.23.57l-1.12.93c-.44.16-.12-.47-.39-.53-.4.82-.62.18-1.13.63.45,0,.48.52.14.95l.78-.49c.17,1.43-1.34.68-1.18,2.11l-.22-.52c0,.7-.84,2.29-.15,3.24-.17.06-.54.09-.52-.21-.68,1.43-.23,3.66-1.22,4.6l-.24-.22c0,.31.35.68-.06.92-.11-.06-.24-.21-.3-.09s.22.91-.07,1.22l-.2-.43a2.43,2.43,0,0,0-.26.49,2.24,2.24,0,0,0-.08.24l-.1.39a7,7,0,0,0-.2,1.47,11.63,11.63,0,0,1-.08,2.37,3.73,3.73,0,0,0-1.56,1.54,22.29,22.29,0,0,0-1.22,2.22l-.16.09,0,.05a25.53,25.53,0,0,0,4.76-.37c1.48-.24,2.8-.53,4-.7a1.37,1.37,0,0,0,.68.31,7.84,7.84,0,0,0,1,.18c.76.09,1.64.12,2.55.14.26-.73.53-1.49.82-2.22.14-.37.29-.72.44-1.07l.24-.51.17-.26c-.23.19-.64-.26-.63-.56.29-.31-.24-1.21.51-.9l-.06.13c.84,0,.9-.85,1.11-1.43l-1-.43c2-1.05.81-4.22,2.4-4.63-.13-.46,0-.92-.1-1.37l.53.2a10.32,10.32,0,0,0,1-2.8l.3.39c.27-.71-1.24-1.43-1.05-2.11l.87.07c.42-1.25,1.56-2.27,1.26-3.76.11.06.33.18.29.39.06-.15.17-.35.28-.57l.17-.33a.11.11,0,0,0,0-.05c0-.06-.08-.24-.57-.61.32.24.35.19.31,0s-.16-.68-.2-1.06l.33.74a4.61,4.61,0,0,1-.39-2.26c.08,0,.24.67.13.56.24.19-.13-1.23.15-1.15l.08.87c.13-.24,0-.58,0-1.74,0-.81.33-.53.4.81a6.61,6.61,0,0,1,.11-2.06c0,.52,0,.95,0,1.15s.1,0,.14-.2c.1-.05.27-1,.32.42,0,.49,0,.75,0,.92a5.05,5.05,0,0,1-.23-1v1.84c0,.55,0,1.1-.05,2.12a15.92,15.92,0,0,1,.15-1.83c.08-.48.18-.64.19-.23l0,.44,0,.11c0,.17,0,.1.07,0a3.44,3.44,0,0,0,0,.5c-.16.86,0,.62,0,.75a8.72,8.72,0,0,0,.47-1.52c0,.09,0,.08-.09,0s0,0-.05,0l0-.08A3.4,3.4,0,0,1,839,454c.15-.46.32-.69.25.07a6.67,6.67,0,0,1,.56-1.17,10.42,10.42,0,0,1-.73,3.11c.16,0,.28.16.48.3a2,2,0,0,0,.4.22,1.92,1.92,0,0,0,.78.43c.23.26-.17.44-.29.61-.16-.14-.21-.35-.39-.4.46.52.7,1.75,1.45,1.66-.06.87-.79-.21-.32.8l-.26-.07c-.42,2.43,2.91,2.73,2.25,5.49,0-.19,0-.28.15-.35.25,2.81,2.4,5.14,2.27,8,0,.8.52.72,1,1.05l-.52.35s.22.12.46.28.49.35.49.35c.52.6.25,1.56.33,2.79a2.68,2.68,0,0,0,2.19-.07l-.07-.2-.06-.2a11.34,11.34,0,0,0,1.27,0c.33,0,.59,0,.55.26.05-.07.17-.42.37-.21l0,.32,1.27-.54c1,.23-.15,1.25,1.28,1.32.53-.12,1.52-.92,1.32-1.13a.61.61,0,0,1-.57-.51l.49-.16c.09-.93.46-1.88-.73-2.54l-.84.57-.27-.45.7,0c-.4-.42-.65,0-.93.21a.76.76,0,0,0-.35-.5l-.82.89c-.1-.36.37-.72-.18-.92-.38.41.37.82-.27,1.09-.4-.42-.28-.77-.75-.41a.4.4,0,0,1,.22-.5,1.09,1.09,0,0,1-.35.15l-.18,0-.06,0a.78.78,0,0,0-.28.39c0-.26-.15-.23-.26-.24s-.16-.07.15-.51l-.17.18c-.18.18-.46.26-.53.15.47-.27.43-.41.42-.52s0-.25.52-.43l-.16,0a.56.56,0,0,1-.16-.07,1.11,1.11,0,0,1-.27-.22,2.46,2.46,0,0,1-.38-.63,3.84,3.84,0,0,0-.79-1.36c.09,0,.26.07.24.16-.09-.51.13-.75.19-1.12-.76.19-1.19-.52-1.79-.77.51-.84,1,.07,1.62-.35-.59.23-1-.84-1.39-.46.29-.61.08-.47.62-.91-1,.23-.3-.37-1-.56.23-.82.81-.47.28-1.1C847.63,465.25,848.18,465.79,848.18,465.79ZM839.67,446v0l.19.45Zm-.72-2.11c.09.32.19.65.31,1,0,.58-.07,1-.14.8A10.56,10.56,0,0,0,838.94,443.85Zm-.15,11.68c-.05.09,0-.14,0-.37,0,0,0,0,.07,0l0-.12Z" transform="translate(-817.29 -421.35)"/><path class="cls-2" d="M839.17,454.37s0,0,0,0l0-.29-.1.26Z" transform="translate(-817.29 -421.35)"/><path class="cls-2" d="M845.47,447.28v0a.22.22,0,0,1-.05.09Z" transform="translate(-817.29 -421.35)"/><polygon class="cls-2" points="12.19 44.06 12.32 44.1 12.25 43.94 12.19 44.06"/><path class="cls-2" d="M846.66,455.89a.27.27,0,0,0-.09.15A.36.36,0,0,0,846.66,455.89Z" transform="translate(-817.29 -421.35)"/><path class="cls-2" d="M847.84,459.36v.56A2.37,2.37,0,0,0,847.84,459.36Z" transform="translate(-817.29 -421.35)"/><path class="cls-2" d="M848.58,462.09a1.07,1.07,0,0,0,.25,0h0Z" transform="translate(-817.29 -421.35)"/><path class="cls-2" d="M829.14,426l-.09,0C828.85,426.09,829,426.05,829.14,426Z" transform="translate(-817.29 -421.35)"/><path class="cls-2" d="M837.91,432.57a2.4,2.4,0,0,1-.42-.27C837.55,432.52,837.62,432.69,837.91,432.57Z" transform="translate(-817.29 -421.35)"/><path class="cls-2" d="M828.26,427.12h.13Z" transform="translate(-817.29 -421.35)"/><path class="cls-2" d="M837.25,431.74a.69.69,0,0,0,.25.55A1,1,0,0,0,837.25,431.74Z" transform="translate(-817.29 -421.35)"/><path class="cls-2" d="M852.65,473.6l0,.13.09,0Z" transform="translate(-817.29 -421.35)"/><path class="cls-2" d="M852.77,473.72l.12.12C852.86,473.77,852.83,473.72,852.77,473.72Z" transform="translate(-817.29 -421.35)"/><path class="cls-2" d="M853.13,474.08l-.24-.25C852.92,473.94,853,474.07,853.13,474.08Z" transform="translate(-817.29 -421.35)"/><path class="cls-2" d="M851.58,470l-.21,0A.48.48,0,0,0,851.58,470Z" transform="translate(-817.29 -421.35)"/><path class="cls-2" d="M851.12,469c.05.27-.17.79.09,1.1l.16,0C851,470,851.53,469.1,851.12,469Z" transform="translate(-817.29 -421.35)"/><path class="cls-2" d="M851.81,463.67l.18.95c.14-.23.34-.54.54-.15C852.71,463.11,852.16,464.86,851.81,463.67Z" transform="translate(-817.29 -421.35)"/><path class="cls-2" d="M851.06,460.8c.27.44.29-.12.42-.14C851.18,460.44,851.1,460.38,851.06,460.8Z" transform="translate(-817.29 -421.35)"/><path class="cls-2" d="M843.54,440.91l.5-.13C843.83,440.43,843.85,440.84,843.54,440.91Z" transform="translate(-817.29 -421.35)"/><polygon class="cls-2" points="22.34 16.7 22.18 17.17 22.68 17.17 22.34 16.7"/><polygon class="cls-2" points="24.84 13.12 24.97 13.25 24.55 12.7 24.84 13.12"/><path class="cls-2" d="M830.09,433.28l.38-.52C830.23,432.69,829.73,433.18,830.09,433.28Z" transform="translate(-817.29 -421.35)"/><path class="cls-2" d="M831.52,445.12c-.35,0-.7.38-.51.74C831.18,445.55,831.53,445.31,831.52,445.12Z" transform="translate(-817.29 -421.35)"/><polygon class="cls-2" points="15.68 49.55 15.79 49.91 15.8 49.3 15.68 49.55"/></svg>
